G04 ---------------------------- Layer name :TOP SILK LAYER*
G04 easyEDA 0.1*
G04 Scale: 100 percent, Rotated: No, Reflected: No *
G04 Dimensions in inches *
G04 leading zeros omitted , absolute positions ,2 integer and 4 * 
%FSLAX24Y24*%
%MOIN*%
G90*
G70D02*

%ADD10C,0.010000*%
%ADD11C,0.007000*%
%ADD12C,0.006000*%
%ADD13C,0.008000*%

%LPD*%
%LNVIA PAD TRACK COPPERAREA*%
G54D10*
G01X3580Y10450D02*
G01X5219Y10450D01*
G01X3950Y11050D02*
G01X3850Y11050D01*
G01X4950Y11050D02*
G01X4850Y11050D01*
G01X1959Y7430D02*
G01X1959Y8369D01*
G01X1959Y8369D02*
G01X4440Y8369D01*
G01X4440Y8369D02*
G01X4440Y7430D01*
G01X4440Y7430D02*
G01X1959Y7430D01*
G01X1100Y12100D02*
G01X2100Y12100D01*
G01X2100Y9100D01*
G01X1100Y9100D01*
G01X1100Y12100D01*
G54D11*
G01X5800Y8900D02*
G01X5800Y9900D01*
G01X9000Y9900D01*
G01X9000Y7900D01*
G01X5800Y7900D01*
G01X5800Y8900D01*
G54D10*
G01X6669Y12140D02*
G01X8969Y12140D01*
G01X8969Y12140D02*
G01X8969Y10369D01*
G01X8969Y10369D02*
G01X6669Y10369D01*
G01X6669Y10369D02*
G01X6669Y12140D01*
G54D11*
G01X4542Y12894D02*
G01X4542Y12465D01*
G01X4400Y12894D02*
G01X4685Y12894D01*
G01X4821Y12813D02*
G01X4861Y12834D01*
G01X4923Y12894D01*
G01X4923Y12465D01*
G01X3200Y9115D02*
G01X3200Y8686D01*
G01X3200Y9115D02*
G01X3384Y9115D01*
G01X3444Y9094D01*
G01X3465Y9075D01*
G01X3486Y9034D01*
G01X3486Y8992D01*
G01X3465Y8951D01*
G01X3444Y8930D01*
G01X3384Y8911D01*
G01X3200Y8911D01*
G01X3342Y8911D02*
G01X3486Y8686D01*
G01X3621Y9034D02*
G01X3661Y9053D01*
G01X3723Y9115D01*
G01X3723Y8686D01*
G01X1907Y12742D02*
G01X1886Y12784D01*
G01X1844Y12825D01*
G01X1805Y12844D01*
G01X1723Y12844D01*
G01X1682Y12825D01*
G01X1640Y12784D01*
G01X1619Y12742D01*
G01X1600Y12682D01*
G01X1600Y12580D01*
G01X1619Y12517D01*
G01X1640Y12476D01*
G01X1682Y12436D01*
G01X1723Y12415D01*
G01X1805Y12415D01*
G01X1844Y12436D01*
G01X1886Y12476D01*
G01X1907Y12517D01*
G01X2042Y12844D02*
G01X2042Y12415D01*
G01X2042Y12844D02*
G01X2328Y12415D01*
G01X2328Y12844D02*
G01X2328Y12415D01*
G01X2463Y12763D02*
G01X2503Y12784D01*
G01X2565Y12844D01*
G01X2565Y12415D01*
G01X7085Y7482D02*
G01X7064Y7523D01*
G01X7022Y7565D01*
G01X6985Y7586D01*
G01X6902Y7586D01*
G01X6860Y7565D01*
G01X6818Y7523D01*
G01X6797Y7482D01*
G01X6777Y7423D01*
G01X6777Y7319D01*
G01X6797Y7257D01*
G01X6818Y7219D01*
G01X6860Y7178D01*
G01X6902Y7157D01*
G01X6985Y7157D01*
G01X7022Y7178D01*
G01X7064Y7219D01*
G01X7085Y7257D01*
G01X7222Y7507D02*
G01X7260Y7523D01*
G01X7322Y7586D01*
G01X7322Y7157D01*
G01X7819Y12884D02*
G01X7819Y12578D01*
G01X7839Y12517D01*
G01X7881Y12476D01*
G01X7943Y12455D01*
G01X7984Y12455D01*
G01X8044Y12476D01*
G01X8085Y12517D01*
G01X8106Y12578D01*
G01X8106Y12884D01*
G01X8240Y12803D02*
G01X8281Y12823D01*
G01X8343Y12884D01*
G01X8343Y12455D01*
G54D12*
G01X8139Y10632D02*
G01X8157Y10642D01*
G01X8185Y10669D01*
G01X8185Y10478D01*
G54D13*
G01X500Y11871D02*
G01X500Y11394D01*
G01X500Y11871D02*
G01X705Y11871D01*
G01X773Y11850D01*
G01X794Y11826D01*
G01X817Y11782D01*
G01X817Y11736D01*
G01X794Y11690D01*
G01X773Y11667D01*
G01X705Y11644D01*
G01X500Y11644D01*
G01X659Y11644D02*
G01X817Y11394D01*
G01X500Y10859D02*
G01X500Y10380D01*
G01X500Y10859D02*
G01X705Y10859D01*
G01X773Y10836D01*
G01X794Y10813D01*
G01X817Y10767D01*
G01X817Y10721D01*
G01X794Y10676D01*
G01X773Y10653D01*
G01X705Y10630D01*
G01X500Y10630D02*
G01X705Y10630D01*
G01X773Y10609D01*
G01X794Y10586D01*
G01X817Y10540D01*
G01X817Y10471D01*
G01X794Y10426D01*
G01X773Y10403D01*
G01X705Y10380D01*
G01X500Y10380D01*
G01X363Y9821D02*
G01X476Y9342D01*
G01X590Y9821D02*
G01X476Y9342D01*
G01X590Y9821D02*
G01X703Y9342D01*
G01X817Y9821D02*
G01X703Y9342D01*
G54D10*
G75*
G01X3450Y11546D02*
G02X5350Y11546I950J-447D01*
G01*
G75*
G01X3450Y10653D02*
G03X3575Y10450I950J445D01*
G01*
G75*
G01X5225Y10450D02*
G03X5355Y10661I-824J651D01*
G01*

M00*
M02*